<?xml version="1.0" encoding="UTF-8" standalone="no"?>
<!DOCTYPE svg PUBLIC "-//W3C//DTD SVG 1.1//EN" "http://www.w3.org/Graphics/SVG/1.1/DTD/svg11.dtd">
<svg width="100%" height="100%" viewBox="0 0 1000 1000" version="1.1" xmlns="http://www.w3.org/2000/svg" xmlns:xlink="http://www.w3.org/1999/xlink" xml:space="preserve" xmlns:serif="http://www.serif.com/" style="fill-rule:evenodd;clip-rule:evenodd;stroke-linecap:round;stroke-linejoin:round;stroke-miterlimit:1.5;">
    <rect x="0" y="0" width="1000" height="1000"/>
    <g transform="matrix(-0.002753,-1.249997,0.999998,-0.002202,200.880914,800)">
        <g transform="matrix(-0.860815,0.860815,-0.876072,-0.876072,1265.746063,327.258021)">
            <path d="M498.648,840.686L545.116,909.174L684.519,703.711L893.623,566.736L823.921,521.078L626.434,646.639L498.648,840.686Z" style="fill:white;stroke:black;stroke-width:3.62px;"/>
        </g>
        <g transform="matrix(-0.860815,0.860815,-0.876072,-0.876072,1425.746063,327.258021)">
            <path d="M498.648,840.686L545.116,909.174L684.519,703.711L893.623,566.736L823.921,521.078L626.434,646.639L498.648,840.686Z" style="fill:white;stroke:black;stroke-width:3.62px;"/>
        </g>
        <g transform="matrix(-0.860815,0.860815,-0.876072,-0.876072,1585.746063,327.258021)">
            <path d="M498.648,840.686L545.116,909.174L684.519,703.711L893.623,566.736L823.921,521.078L626.434,646.639L498.648,840.686Z" style="fill:white;stroke:black;stroke-width:3.62px;"/>
        </g>
    </g>
</svg>
